<svg xmlns="http://www.w3.org/2000/svg" xmlns:xlink="http://www.w3.org/1999/xlink" width="500" zoomAndPan="magnify" viewBox="0 0 375 374.999991" height="500" preserveAspectRatio="xMidYMid meet" version="1.0"><defs><g/><clipPath id="421240d87e"><path d="M 57 44.0625 L 318 44.0625 L 318 331 L 57 331 Z M 57 44.0625 " clip-rule="nonzero"/></clipPath><clipPath id="b0bec59c05"><path d="M 143 138 L 251 138 L 251 213.140625 L 143 213.140625 Z M 143 138 " clip-rule="nonzero"/></clipPath><clipPath id="18caf2d084"><path d="M 134 69.140625 L 217 69.140625 L 217 87 L 134 87 Z M 134 69.140625 " clip-rule="nonzero"/></clipPath><clipPath id="0c71def86d"><path d="M 116.648438 78 L 132 78 L 132 93 L 116.648438 93 Z M 116.648438 78 " clip-rule="nonzero"/></clipPath><clipPath id="de7eabe1fb"><path d="M 243 121 L 258.398438 121 L 258.398438 137 L 243 137 Z M 243 121 " clip-rule="nonzero"/></clipPath></defs><rect x="-37.5" width="450" fill="#ffffff" y="-37.499999" height="449.999989" fill-opacity="1"/><rect x="-37.5" width="450" fill="#0e1e3b" y="-37.499999" height="449.999989" fill-opacity="1"/><path fill="#649e66" d="M 0 89.964844 C 0 89.964844 25.761719 108.371094 60.015625 127.34375 C 62.078125 144.449219 65.292969 160.992188 69.621094 176.816406 C 32.308594 162.582031 2.257812 146.277344 2.257812 146.277344 C 2.257812 146.277344 1.664062 132.195312 1.117188 118.179688 C 0.566406 104.097656 0 89.964844 0 89.964844 Z M 0 89.964844 " fill-opacity="1" fill-rule="evenodd"/><path fill="#649e66" d="M 17.109375 168.390625 C 17.109375 168.390625 42.246094 180.859375 74.203125 192.074219 C 79.257812 207.417969 85.410156 221.980469 92.617188 235.589844 C 55.984375 229.761719 23.992188 220.769531 23.992188 220.769531 C 23.992188 220.769531 22.257812 207.8125 20.535156 194.742188 C 18.800781 181.585938 17.109375 168.390625 17.109375 168.390625 Z M 17.109375 168.390625 " fill-opacity="1" fill-rule="evenodd"/><path fill="#649e66" d="M 336.445312 239.5625 C 336.445312 239.5625 307.457031 245.722656 274.230469 249.851562 C 266.84375 261.839844 258.621094 272.925781 249.636719 283.007812 L 251.59375 283.078125 C 288.914062 284.375 326.121094 284.382812 326.121094 284.382812 C 326.121094 284.382812 336.445312 239.5625 336.445312 239.5625 Z M 336.445312 239.5625 " fill-opacity="1" fill-rule="evenodd"/><path fill="#649e66" d="M 375 89.964844 C 375 89.964844 349.238281 108.371094 314.984375 127.34375 C 312.921875 144.449219 309.707031 160.992188 305.378906 176.816406 C 342.691406 162.582031 372.734375 146.277344 372.734375 146.277344 C 372.734375 146.277344 373.335938 132.195312 373.882812 118.179688 C 374.433594 104.097656 375 89.964844 375 89.964844 Z M 375 89.964844 " fill-opacity="1" fill-rule="evenodd"/><path fill="#649e66" d="M 357.890625 168.390625 C 357.890625 168.390625 332.753906 180.859375 300.789062 192.074219 C 295.742188 207.417969 289.589844 221.980469 282.382812 235.589844 C 319.015625 229.761719 351.007812 220.769531 351.007812 220.769531 C 351.007812 220.769531 352.742188 207.8125 354.464844 194.742188 C 356.199219 181.585938 357.890625 168.390625 357.890625 168.390625 Z M 357.890625 168.390625 " fill-opacity="1" fill-rule="evenodd"/><path fill="#7f99b9" d="M 146.789062 280.769531 C 153.507812 287.4375 160.640625 293.546875 168.132812 299.066406 C 174.394531 303.671875 180.875 307.84375 187.527344 311.542969 C 194.167969 307.84375 200.636719 303.671875 206.902344 299.066406 C 214.394531 293.546875 221.523438 287.4375 228.242188 280.769531 C 235.554688 273.519531 242.394531 265.605469 248.726562 257.085938 C 255.058594 248.5625 260.886719 239.433594 266.136719 229.761719 C 271.699219 219.515625 276.625 208.652344 280.871094 197.265625 C 285.128906 185.859375 288.742188 173.820312 291.683594 161.242188 C 294.464844 149.347656 296.609375 137.058594 298.113281 124.445312 C 299.433594 113.324219 300.25 102.089844 300.550781 90.804688 C 295.648438 88 288.578125 84.292969 279.507812 80.398438 C 271.457031 76.9375 261.917969 73.386719 251.0625 70.289062 C 241.414062 67.535156 230.828125 65.148438 219.464844 63.542969 C 209.519531 62.144531 198.851562 61.3125 187.527344 61.3125 C 176.171875 61.3125 165.488281 62.144531 155.527344 63.550781 C 144.148438 65.15625 133.542969 67.535156 123.886719 70.296875 C 113.015625 73.402344 103.472656 76.957031 95.433594 80.40625 C 86.429688 84.277344 79.375 87.984375 74.476562 90.796875 C 74.777344 102.082031 75.59375 113.316406 76.914062 124.429688 C 78.414062 137.050781 80.5625 149.347656 83.339844 161.242188 C 86.285156 173.820312 89.898438 185.859375 94.152344 197.257812 C 98.402344 208.652344 103.328125 219.515625 108.886719 229.761719 C 114.148438 239.433594 119.972656 248.5625 126.308594 257.09375 C 132.632812 265.605469 139.480469 273.519531 146.789062 280.769531 Z M 146.789062 280.769531 " fill-opacity="1" fill-rule="evenodd"/><g clip-path="url(#421240d87e)"><path fill="#7f99b9" d="M 187.527344 330.839844 C 148.9375 311.808594 116.558594 279.707031 93.878906 237.941406 C 70.003906 193.988281 57.347656 139.867188 57.253906 81.375 C 62.832031 77.480469 114.011719 44.152344 187.527344 44.152344 C 261.042969 44.152344 312.261719 77.574219 317.78125 81.375 C 317.675781 139.847656 305.027344 193.988281 281.15625 237.941406 C 258.46875 279.707031 226.097656 311.808594 187.527344 330.839844 Z M 140.757812 286.835938 C 154.8125 300.78125 170.519531 312.355469 187.527344 321.246094 C 204.523438 312.355469 220.230469 300.78125 234.277344 286.835938 C 249.449219 271.785156 262.707031 253.980469 273.648438 233.847656 C 285.1875 212.601562 294.035156 188.8125 300.035156 163.179688 C 305.730469 138.800781 308.839844 112.867188 309.191406 86.007812 C 301.0625 80.972656 281.457031 70.058594 253.402344 62.042969 C 234.765625 56.714844 212.480469 52.730469 187.527344 52.730469 C 162.519531 52.730469 140.199219 56.722656 121.542969 62.050781 C 93.492188 70.066406 73.9375 80.957031 65.835938 85.976562 C 66.195312 112.859375 69.292969 138.792969 75 163.179688 C 80.988281 188.804688 89.84375 212.601562 101.386719 233.847656 C 112.320312 253.988281 125.585938 271.785156 140.757812 286.835938 Z M 140.757812 286.835938 " fill-opacity="1" fill-rule="evenodd"/></g><path fill="#649e66" d="M 38.554688 239.5625 C 38.554688 239.5625 67.542969 245.722656 100.769531 249.851562 C 108.148438 261.839844 116.378906 272.925781 125.363281 283.007812 L 123.40625 283.078125 C 86.085938 284.375 48.878906 284.382812 48.878906 284.382812 C 48.878906 284.382812 38.554688 239.5625 38.554688 239.5625 Z M 38.554688 239.5625 " fill-opacity="1" fill-rule="evenodd"/><path fill="#0e1e3b" d="M 232.679688 132.082031 C 234.148438 126.980469 235.445312 121.15625 236.425781 115.246094 C 237.320312 110.023438 238.011719 104.71875 238.386719 99.5 C 230.515625 98.03125 222.644531 96.359375 214.65625 94.570312 C 206.179688 92.695312 197.816406 90.734375 189.773438 88.773438 L 175.414062 92.03125 C 175.414062 90.445312 175.011719 88.976562 174.320312 87.503906 C 175.789062 87.21875 177.257812 86.8125 178.933594 86.410156 C 182.679688 85.515625 186.113281 84.738281 189.167969 83.960938 L 190.265625 83.960938 C 198.742188 86.035156 207.277344 88.082031 215.753906 89.957031 C 224.230469 91.832031 232.765625 93.589844 241.328125 95.175781 L 243.40625 95.578125 L 243.320312 97.742188 C 242.914062 103.738281 242.136719 109.9375 241.15625 116.050781 C 240.058594 122.164062 238.792969 128.160156 237.320312 133.46875 C 235.9375 132.660156 234.351562 132.171875 232.679688 132.082031 Z M 232.679688 132.082031 " fill-opacity="1" fill-rule="nonzero"/><path fill="#0e1e3b" d="M 189.167969 191.914062 C 189.371094 192 189.570312 192.117188 189.746094 192.203125 C 198.222656 187.589844 205.402344 181.5625 211.285156 174.585938 C 216.992188 167.980469 221.605469 160.515625 225.269531 152.441406 C 226.652344 153.335938 228.125 153.910156 229.710938 154.199219 C 225.757812 162.761719 220.945312 170.722656 214.945312 177.726562 C 208.34375 185.511719 200.382812 192.085938 190.839844 197.019531 L 189.746094 197.59375 L 188.5625 197.019531 C 187.984375 196.613281 187.292969 196.328125 186.601562 195.921875 L 186.601562 195.835938 C 187.8125 194.769531 188.679688 193.386719 189.167969 191.914062 Z M 189.167969 191.914062 " fill-opacity="1" fill-rule="nonzero"/><path fill="#0e1e3b" d="M 154.046875 96.933594 C 152.578125 97.222656 150.992188 97.511719 149.433594 97.828125 C 146.578125 98.40625 143.8125 99.011719 141.074219 99.5 C 141.476562 104.71875 142.167969 110.023438 143.035156 115.246094 C 144.128906 121.445312 145.484375 127.554688 146.984375 132.863281 C 149.839844 143.097656 153.757812 152.929688 158.980469 161.78125 C 162.726562 167.980469 167.050781 173.777344 172.070312 178.910156 C 171.664062 179.3125 171.175781 179.601562 170.800781 180.007812 C 170.109375 180.785156 169.417969 181.679688 168.925781 182.574219 C 163.503906 177.066406 158.777344 170.867188 154.855469 164.175781 C 149.433594 154.921875 145.398438 144.800781 142.371094 134.160156 C 140.898438 128.652344 139.429688 122.453125 138.332031 116.050781 C 137.351562 109.9375 136.574219 103.738281 136.171875 97.742188 L 136.085938 95.578125 L 138.160156 95.175781 C 141.707031 94.597656 145.136719 93.90625 148.484375 93.214844 C 149.953125 92.925781 151.425781 92.636719 153.011719 92.320312 C 152.953125 93.90625 153.355469 95.464844 154.046875 96.933594 Z M 154.046875 96.933594 " fill-opacity="1" fill-rule="nonzero"/><path fill="#0e1e3b" d="M 189.773438 88.773438 C 186.226562 89.554688 182.882812 90.445312 180.027344 91.140625 C 178.558594 91.425781 177.085938 91.832031 175.414062 92.234375 L 175.414062 92.148438 Z M 189.773438 88.773438 " fill-opacity="1" fill-rule="nonzero"/><path fill="#0e1e3b" d="M 169.589844 151.460938 C 171.753906 155.496094 174.203125 159.332031 177.058594 162.964844 C 180.691406 167.578125 184.84375 171.730469 189.746094 175.277344 C 196.925781 169.972656 202.75 163.28125 207.363281 155.699219 C 212.378906 147.625 216.011719 138.484375 218.664062 128.941406 C 219.558594 125.882812 220.339844 122.65625 221.03125 119.195312 C 221.605469 116.542969 222.125 113.773438 222.5 111.035156 C 221.03125 110.632812 219.558594 110.34375 218.261719 110.140625 L 217.570312 109.9375 C 218.261719 108.46875 218.664062 106.882812 218.664062 105.324219 L 219.242188 105.410156 C 221.691406 105.902344 223.855469 106.390625 225.730469 106.796875 L 227.890625 107.285156 L 227.605469 109.449219 C 227.113281 113.082031 226.421875 116.628906 225.730469 120.175781 C 224.953125 123.722656 224.058594 127.152344 223.277344 130.210938 C 220.425781 140.15625 216.589844 149.703125 211.371094 158.148438 C 206.152344 166.800781 199.460938 174.382812 191.011719 180.207031 L 189.746094 181.101562 L 188.359375 180.207031 C 182.566406 176.171875 177.546875 171.355469 173.308594 165.847656 C 170.253906 162.011719 167.601562 157.890625 165.234375 153.449219 C 166.851562 153.132812 168.320312 152.441406 169.589844 151.460938 Z M 169.589844 151.460938 " fill-opacity="1" fill-rule="nonzero"/><path fill="#0e1e3b" d="M 189.773438 103.539062 C 184.0625 104.921875 178.269531 106.304688 172.558594 107.574219 C 167.339844 108.757812 162.121094 109.9375 156.902344 111.003906 C 157.304688 113.773438 157.796875 116.511719 158.375 119.164062 C 159.066406 122.597656 159.960938 125.855469 160.738281 128.910156 C 160.9375 129.691406 161.226562 130.496094 161.429688 131.363281 C 159.84375 131.566406 158.375 132.054688 156.988281 132.949219 C 156.699219 132.054688 156.414062 131.191406 156.210938 130.179688 C 155.316406 127.125 154.453125 123.691406 153.757812 120.144531 C 152.980469 116.597656 152.375 113.054688 151.800781 109.417969 L 151.511719 107.257812 L 153.671875 106.765625 C 159.585938 105.585938 165.582031 104.199219 171.492188 102.933594 C 177.488281 101.546875 183.402344 100.164062 189.195312 98.695312 L 190.292969 98.695312 C 192.742188 99.269531 194.820312 99.789062 196.695312 100.28125 L 197.386719 100.367188 C 196.695312 101.835938 196.289062 103.421875 196.289062 105.09375 L 195.597656 104.894531 C 193.40625 104.429688 191.445312 103.941406 189.773438 103.539062 Z M 189.773438 103.539062 " fill-opacity="1" fill-rule="nonzero"/><path fill="#0e1e3b" d="M 194.386719 157.574219 L 194.300781 157.660156 L 194.300781 157.746094 L 194.214844 157.832031 L 193.808594 158.324219 L 193.378906 158.753906 L 193.378906 158.839844 L 193.292969 158.839844 L 193.203125 158.929688 L 193.203125 159.101562 L 192.859375 159.445312 L 192.773438 159.535156 L 192.6875 159.621094 L 192.597656 159.707031 L 192.511719 159.792969 L 192.511719 159.878906 L 192.425781 159.878906 L 192.339844 159.964844 L 192.339844 160.050781 L 192.253906 160.050781 L 192.050781 160.253906 L 192.050781 160.339844 L 191.964844 160.425781 L 191.878906 160.425781 L 191.878906 160.515625 L 191.675781 160.714844 L 190.003906 162.589844 L 188.246094 160.714844 L 188.042969 160.515625 L 188.042969 160.425781 L 187.957031 160.425781 L 187.871094 160.339844 L 187.871094 160.253906 L 187.496094 159.878906 L 187.410156 159.878906 L 187.410156 160.023438 L 187.324219 159.9375 L 187.234375 159.851562 L 187.0625 159.679688 L 186.976562 159.589844 L 186.890625 159.503906 L 186.890625 159.417969 L 186.71875 159.246094 L 186.71875 159.160156 L 186.628906 159.074219 L 186.140625 159.074219 L 186.140625 158.984375 L 185.882812 158.726562 L 185.792969 158.640625 L 185.707031 158.554688 L 185.304688 158.0625 L 185.304688 157.976562 L 185.21875 157.976562 L 185.21875 157.890625 L 185.132812 157.804688 C 181.988281 153.851562 179.335938 149.527344 177.058594 145 C 174.894531 140.675781 173.019531 136.035156 171.550781 131.421875 C 171.058594 130.035156 170.65625 128.652344 170.28125 127.183594 L 170.195312 126.980469 L 170.195312 126.894531 L 170.109375 126.691406 L 170.109375 126.289062 L 170.023438 126.203125 L 170.023438 125.941406 L 169.9375 125.941406 L 169.9375 125.597656 L 169.703125 125.597656 L 169.703125 125.421875 L 169.617188 125.222656 L 169.617188 125.046875 L 169.53125 124.960938 L 169.53125 124.617188 L 169.445312 124.617188 L 169.445312 124.355469 L 169.359375 124.269531 L 169.359375 123.921875 L 169.273438 123.921875 L 169.273438 123.664062 L 169.1875 123.578125 L 169.1875 122.941406 L 169.097656 122.941406 L 169.097656 122.539062 L 169.011719 122.539062 L 169.011719 122.164062 L 168.925781 122.078125 L 168.925781 121.820312 L 168.839844 121.730469 L 168.839844 121.472656 L 168.753906 121.386719 L 168.753906 121.039062 L 168.667969 121.039062 L 168.667969 120.953125 L 168.175781 118.589844 L 170.542969 118.097656 L 170.628906 118.011719 L 170.800781 118.011719 L 171.003906 117.925781 L 171.378906 117.925781 L 171.464844 117.839844 L 171.753906 117.839844 L 171.839844 117.753906 L 172.128906 117.753906 L 172.214844 117.667969 L 172.703125 117.667969 L 172.789062 117.578125 L 173.078125 117.578125 L 173.164062 117.492188 L 173.453125 117.492188 L 173.65625 117.40625 L 173.828125 117.40625 L 174.03125 117.320312 L 174.320312 117.320312 L 174.40625 117.234375 L 174.691406 117.234375 L 174.894531 117.148438 L 174.980469 117.148438 L 175.183594 117.0625 L 175.472656 117.0625 L 175.558594 116.972656 L 175.960938 116.972656 L 176.046875 116.886719 L 176.335938 116.886719 L 176.539062 116.800781 L 176.828125 116.800781 L 177.027344 116.714844 L 177.117188 116.714844 L 177.316406 116.628906 L 177.605469 116.628906 L 177.808594 116.542969 L 178.097656 116.542969 L 178.183594 116.457031 L 178.382812 116.457031 L 178.585938 116.367188 L 178.875 116.367188 L 179.074219 116.28125 L 179.363281 116.28125 L 179.566406 116.195312 L 179.652344 116.195312 L 179.855469 116.109375 L 180.144531 116.109375 L 180.34375 116.023438 L 180.546875 116.023438 L 180.632812 115.9375 L 181.035156 115.9375 L 181.125 115.851562 L 181.527344 115.851562 L 181.613281 115.761719 L 181.816406 115.761719 L 181.902344 115.675781 L 182.304688 115.675781 L 182.390625 115.589844 L 182.679688 115.589844 L 182.882812 115.503906 L 182.96875 115.503906 L 183.171875 115.417969 L 183.457031 115.417969 L 183.660156 115.332031 L 183.949219 115.332031 L 184.035156 115.246094 L 184.324219 115.246094 L 184.527344 115.15625 L 184.613281 115.15625 L 184.8125 115.070312 L 185.101562 115.070312 L 185.1875 114.984375 L 185.476562 114.984375 L 185.5625 114.898438 L 185.851562 114.898438 L 186.054688 114.8125 L 186.34375 114.8125 L 186.429688 114.726562 L 186.71875 114.726562 L 186.804688 114.640625 L 187.09375 114.640625 L 187.179688 114.550781 L 187.46875 114.550781 L 187.554688 114.464844 L 187.839844 114.464844 L 188.042969 114.378906 L 188.214844 114.378906 L 188.417969 114.292969 L 188.589844 114.292969 L 188.792969 114.207031 L 190.175781 114.207031 L 190.265625 114.292969 L 190.550781 114.292969 L 190.636719 114.378906 L 190.925781 114.378906 L 191.011719 114.464844 L 191.300781 114.464844 L 191.386719 114.550781 L 191.675781 114.550781 L 191.761719 114.640625 L 192.050781 114.640625 L 192.136719 114.726562 L 192.425781 114.726562 L 192.628906 114.8125 L 192.800781 114.8125 L 193.003906 114.898438 L 193.292969 114.898438 L 193.378906 114.984375 L 193.667969 114.984375 L 193.867188 115.070312 L 194.15625 115.070312 L 194.242188 115.15625 L 194.445312 115.15625 L 194.53125 115.246094 L 194.820312 115.246094 L 195.019531 115.332031 L 195.308594 115.332031 L 195.394531 115.417969 L 195.683594 115.417969 L 195.886719 115.503906 L 195.972656 115.503906 L 196.175781 115.589844 L 196.464844 115.589844 L 196.664062 115.675781 L 196.953125 115.675781 L 197.039062 115.761719 L 197.242188 115.761719 L 197.445312 115.851562 L 197.730469 115.851562 L 197.816406 115.9375 L 198.222656 115.9375 L 198.308594 116.023438 L 198.511719 116.023438 L 198.710938 116.109375 L 199 116.109375 L 199.203125 116.195312 L 199.289062 116.195312 L 199.492188 116.28125 L 199.777344 116.28125 L 199.980469 116.367188 L 200.269531 116.367188 L 200.472656 116.457031 L 200.671875 116.457031 L 200.757812 116.542969 L 201.164062 116.542969 L 201.25 116.628906 L 201.539062 116.628906 L 201.738281 116.714844 L 201.941406 116.714844 L 202.027344 116.800781 L 202.316406 116.800781 L 202.519531 116.886719 L 202.808594 116.886719 L 203.007812 116.972656 L 203.296875 116.972656 L 203.382812 117.0625 L 203.671875 117.0625 L 203.875 117.148438 L 203.960938 117.148438 L 204.160156 117.234375 L 204.449219 117.234375 L 204.535156 117.320312 L 204.824219 117.320312 L 205.027344 117.40625 L 205.316406 117.40625 L 205.402344 117.492188 L 205.691406 117.492188 L 205.777344 117.578125 L 206.066406 117.578125 L 206.265625 117.667969 L 206.640625 117.667969 L 206.726562 117.753906 L 207.015625 117.753906 L 207.101562 117.839844 L 207.390625 117.839844 L 207.476562 117.925781 L 207.851562 117.925781 L 208.054688 118.011719 L 208.226562 118.011719 L 208.429688 118.097656 L 210.792969 118.589844 L 210.21875 120.953125 L 210.21875 121.125 L 210.128906 121.125 L 210.128906 121.472656 L 210.042969 121.472656 L 210.042969 121.820312 L 209.957031 121.820312 L 209.957031 122.164062 L 209.871094 122.164062 L 209.871094 122.511719 L 209.785156 122.597656 L 209.785156 122.855469 L 209.699219 122.941406 L 209.699219 123.203125 L 209.613281 123.203125 L 209.613281 123.460938 L 209.523438 123.546875 L 209.523438 123.894531 L 209.4375 123.894531 L 209.4375 124.152344 L 209.351562 124.242188 L 209.351562 124.5 L 209.265625 124.585938 L 209.265625 124.757812 L 209.179688 124.960938 L 209.179688 125.222656 L 209.09375 125.222656 L 209.09375 125.480469 L 209.007812 125.566406 L 209.007812 125.828125 L 208.917969 125.914062 L 208.917969 126 L 208.832031 126.203125 L 208.832031 126.488281 C 208.34375 127.960938 207.9375 129.34375 207.5625 130.726562 L 207.476562 130.726562 C 206.007812 135.34375 204.21875 139.984375 201.96875 144.308594 C 200.210938 149.296875 197.53125 153.621094 194.386719 157.574219 Z M 194.386719 157.574219 " fill-opacity="1" fill-rule="nonzero"/><path fill="#0e1e3b" d="M 250.5 117.40625 C 252.863281 103.132812 253.152344 91.917969 253.152344 87.59375 C 249.894531 87.015625 246.460938 86.410156 243.117188 85.71875 C 240.867188 85.3125 238.675781 84.941406 236.425781 84.449219 C 237.121094 83.066406 237.40625 81.507812 237.40625 79.921875 L 237.40625 79.835938 C 239.570312 80.238281 241.734375 80.613281 243.894531 81.105469 C 248.019531 81.882812 252.054688 82.574219 255.804688 83.179688 L 257.765625 83.46875 L 257.851562 85.429688 C 257.851562 85.515625 258.339844 99.414062 255.199219 118.300781 C 253.8125 117.722656 252.257812 117.40625 250.757812 117.40625 C 250.671875 117.40625 250.585938 117.40625 250.5 117.40625 Z M 250.5 117.40625 " fill-opacity="1" fill-rule="nonzero"/><g clip-path="url(#b0bec59c05)"><path fill="#0e1e3b" d="M 147.445312 170.261719 C 151.683594 177.238281 156.789062 183.925781 162.898438 190.039062 C 170.28125 197.21875 179.046875 203.535156 189.773438 208.148438 C 206.902344 200.679688 219.386719 188.972656 228.554688 175.679688 C 236.628906 163.972656 242.050781 150.96875 245.683594 138.570312 C 247.152344 139.351562 248.738281 139.753906 250.296875 139.839844 C 246.546875 152.640625 240.839844 166.109375 232.476562 178.421875 C 222.730469 192.578125 209.265625 205.09375 190.636719 212.964844 L 189.746094 213.367188 L 188.765625 212.964844 C 177.144531 208.03125 167.511719 201.257812 159.527344 193.386719 C 153.039062 186.984375 147.617188 179.890625 143.175781 172.507812 C 144.792969 172.132812 146.175781 171.355469 147.445312 170.261719 Z M 147.445312 170.261719 " fill-opacity="1" fill-rule="nonzero"/></g><path fill="#0e1e3b" d="M 126.597656 96.445312 C 127 103.625 127.980469 113.773438 130.433594 125.191406 C 132.105469 133.351562 134.554688 142.03125 137.902344 150.769531 C 136.316406 151.054688 134.84375 151.75 133.574219 152.730469 C 130.027344 143.589844 127.460938 134.535156 125.703125 126.144531 C 123.253906 114.320312 122.273438 103.914062 121.867188 96.53125 C 122.5625 96.617188 123.253906 96.734375 124.03125 96.734375 C 124.925781 96.761719 125.703125 96.644531 126.597656 96.445312 Z M 126.597656 96.445312 " fill-opacity="1" fill-rule="nonzero"/><g clip-path="url(#18caf2d084)"><path fill="#0e1e3b" d="M 189.773438 73.925781 C 185.535156 75.019531 158.863281 81.507812 135.160156 86.035156 C 135.160156 85.832031 135.160156 85.746094 135.160156 85.546875 C 135.160156 84.074219 134.960938 82.605469 134.382812 81.304688 C 160.046875 76.492188 189.082031 69.195312 189.167969 69.195312 L 190.265625 69.195312 C 190.351562 69.195312 201.394531 71.964844 216.042969 75.195312 C 215.347656 76.664062 214.945312 78.25 214.945312 79.921875 C 202.375 77.066406 192.222656 74.617188 189.773438 73.925781 Z M 189.773438 73.925781 " fill-opacity="1" fill-rule="nonzero"/></g><g clip-path="url(#0c71def86d)"><path fill="#0e1e3b" d="M 129.25 90.734375 C 130.519531 89.464844 131.414062 87.59375 131.414062 85.515625 C 131.414062 83.441406 130.519531 81.679688 129.25 80.296875 C 127.867188 78.914062 125.992188 78.132812 124.03125 78.132812 C 121.957031 78.132812 120.082031 78.914062 118.8125 80.296875 C 117.429688 81.679688 116.648438 83.46875 116.648438 85.546875 C 116.648438 87.621094 117.429688 89.496094 118.8125 90.765625 C 120.082031 92.148438 121.957031 92.925781 124.03125 92.925781 C 125.992188 92.925781 127.867188 92.121094 129.25 90.734375 Z M 125.789062 83.671875 C 126.28125 84.160156 126.570312 84.851562 126.570312 85.546875 C 126.570312 86.238281 126.28125 86.929688 125.789062 87.417969 C 125.386719 87.910156 124.695312 88.199219 124.03125 88.199219 C 123.253906 88.199219 122.648438 87.910156 122.15625 87.417969 C 121.667969 86.929688 121.378906 86.238281 121.378906 85.546875 C 121.378906 84.851562 121.667969 84.160156 122.15625 83.671875 C 122.648438 83.265625 123.253906 82.980469 124.03125 82.980469 C 124.722656 82.980469 125.414062 83.265625 125.789062 83.671875 Z M 125.789062 83.671875 " fill-opacity="1" fill-rule="nonzero"/></g><path fill="#0e1e3b" d="M 166.851562 92.320312 C 166.851562 93.011719 166.5625 93.707031 166.070312 94.078125 C 165.582031 94.570312 164.976562 94.859375 164.199219 94.859375 C 163.503906 94.859375 162.8125 94.570312 162.4375 94.078125 C 161.949219 93.675781 161.660156 92.984375 161.660156 92.320312 C 161.660156 91.542969 161.949219 90.9375 162.4375 90.445312 C 162.84375 89.957031 163.535156 89.667969 164.199219 89.667969 C 164.976562 89.667969 165.582031 89.957031 166.070312 90.445312 C 166.535156 90.9375 166.851562 91.542969 166.851562 92.320312 Z M 156.789062 92.320312 C 156.789062 94.28125 157.679688 96.15625 158.949219 97.539062 C 160.332031 98.808594 162.207031 99.703125 164.167969 99.703125 C 166.246094 99.703125 168.117188 98.808594 169.386719 97.539062 C 170.773438 96.15625 171.550781 94.28125 171.550781 92.320312 C 171.550781 90.246094 170.773438 88.371094 169.386719 87.101562 C 168.117188 85.71875 166.246094 84.941406 164.167969 84.941406 C 162.207031 84.941406 160.332031 85.71875 158.949219 87.101562 C 157.679688 88.398438 156.789062 90.246094 156.789062 92.320312 Z M 156.789062 92.320312 " fill-opacity="1" fill-rule="nonzero"/><path fill="#0e1e3b" d="M 218.808594 79.921875 C 218.808594 82 219.589844 83.757812 220.972656 85.140625 C 222.355469 86.410156 224.113281 87.304688 226.191406 87.304688 C 228.265625 87.304688 230.140625 86.410156 231.410156 85.140625 C 232.792969 83.757812 233.574219 82 233.574219 79.921875 C 233.574219 77.847656 232.792969 75.972656 231.410156 74.703125 C 230.140625 73.320312 228.265625 72.539062 226.191406 72.539062 C 224.113281 72.539062 222.355469 73.320312 220.972656 74.703125 C 219.589844 75.972656 218.808594 77.847656 218.808594 79.921875 Z M 224.316406 81.796875 C 223.914062 81.304688 223.625 80.613281 223.625 79.921875 C 223.625 79.230469 223.914062 78.539062 224.316406 78.046875 C 224.808594 77.558594 225.5 77.269531 226.191406 77.269531 C 226.882812 77.269531 227.574219 77.558594 228.066406 78.046875 C 228.554688 78.539062 228.84375 79.230469 228.84375 79.921875 C 228.84375 80.613281 228.554688 81.304688 228.066406 81.796875 C 227.574219 82.199219 226.882812 82.488281 226.191406 82.488281 C 225.5 82.488281 224.808594 82.199219 224.316406 81.796875 Z M 224.316406 81.796875 " fill-opacity="1" fill-rule="nonzero"/><g clip-path="url(#de7eabe1fb)"><path fill="#0e1e3b" d="M 250.785156 121.242188 C 248.710938 121.242188 246.835938 122.019531 245.566406 123.40625 C 244.183594 124.671875 243.40625 126.546875 243.40625 128.625 C 243.40625 130.699219 244.183594 132.457031 245.566406 133.84375 C 246.835938 135.109375 248.710938 136.003906 250.785156 136.003906 C 252.746094 136.003906 254.621094 135.109375 256.003906 133.84375 C 257.273438 132.457031 258.167969 130.699219 258.167969 128.625 C 258.167969 126.546875 257.273438 124.671875 256.003906 123.40625 C 254.621094 122.050781 252.746094 121.242188 250.785156 121.242188 Z M 250.785156 125.96875 C 251.480469 125.96875 252.171875 126.257812 252.546875 126.75 C 253.035156 127.238281 253.324219 127.929688 253.324219 128.625 C 253.324219 129.316406 253.035156 130.007812 252.546875 130.496094 C 252.140625 130.902344 251.449219 131.191406 250.785156 131.191406 C 250.007812 131.191406 249.402344 130.902344 248.914062 130.496094 C 248.421875 130.007812 248.132812 129.316406 248.132812 128.625 C 248.132812 127.929688 248.421875 127.238281 248.914062 126.75 C 249.402344 126.257812 250.007812 125.96875 250.785156 125.96875 Z M 250.785156 125.96875 " fill-opacity="1" fill-rule="nonzero"/></g><path fill="#0e1e3b" d="M 212.695312 110.429688 C 214.082031 109.160156 214.859375 107.285156 214.859375 105.210938 C 214.859375 103.25 214.082031 101.375 212.695312 99.992188 C 211.3125 98.722656 209.554688 97.828125 207.476562 97.828125 C 205.402344 97.828125 203.527344 98.722656 202.257812 99.992188 C 200.875 101.375 200.097656 103.25 200.097656 105.210938 C 200.097656 107.285156 200.875 109.160156 202.257812 110.429688 C 203.527344 111.8125 205.402344 112.589844 207.476562 112.589844 C 209.554688 112.589844 211.3125 111.8125 212.695312 110.429688 Z M 209.351562 103.449219 C 209.753906 103.855469 210.042969 104.546875 210.042969 105.210938 C 210.042969 105.988281 209.753906 106.59375 209.351562 107.085938 C 208.863281 107.574219 208.167969 107.863281 207.476562 107.863281 C 206.785156 107.863281 206.09375 107.574219 205.605469 107.085938 C 205.113281 106.59375 204.824219 105.988281 204.824219 105.210938 C 204.824219 104.519531 205.113281 103.824219 205.605469 103.449219 C 206.09375 102.960938 206.785156 102.671875 207.476562 102.671875 C 208.167969 102.644531 208.863281 102.960938 209.351562 103.449219 Z M 209.351562 103.449219 " fill-opacity="1" fill-rule="nonzero"/><path fill="#0e1e3b" d="M 170.195312 142.523438 C 170.195312 140.445312 169.417969 138.570312 168.03125 137.300781 C 166.765625 135.917969 164.890625 135.140625 162.8125 135.140625 C 160.851562 135.140625 158.980469 135.917969 157.59375 137.300781 C 156.324219 138.570312 155.433594 140.445312 155.433594 142.523438 C 155.433594 144.597656 156.324219 146.355469 157.59375 147.742188 C 158.980469 149.125 160.851562 149.902344 162.8125 149.902344 C 164.890625 149.902344 166.765625 149.125 168.03125 147.742188 C 169.386719 146.355469 170.195312 144.570312 170.195312 142.523438 Z M 162.8125 139.867188 C 163.59375 139.867188 164.199219 140.15625 164.6875 140.648438 C 165.179688 141.136719 165.464844 141.828125 165.464844 142.523438 C 165.464844 143.214844 165.179688 143.90625 164.6875 144.394531 C 164.199219 144.800781 163.59375 145.085938 162.8125 145.085938 C 162.121094 145.085938 161.429688 144.800781 161.054688 144.394531 C 160.566406 143.90625 160.277344 143.214844 160.277344 142.523438 C 160.277344 141.828125 160.566406 141.136719 161.054688 140.648438 C 161.429688 140.15625 162.121094 139.867188 162.8125 139.867188 Z M 162.8125 139.867188 " fill-opacity="1" fill-rule="nonzero"/><path fill="#0e1e3b" d="M 147.445312 161.8125 C 147.445312 159.734375 146.667969 157.863281 145.367188 156.59375 C 143.984375 155.207031 142.109375 154.429688 140.0625 154.429688 C 138.101562 154.429688 136.226562 155.207031 134.84375 156.59375 C 133.574219 157.863281 132.683594 159.734375 132.683594 161.8125 C 132.683594 163.886719 133.574219 165.648438 134.84375 167.03125 C 136.226562 168.300781 138.101562 169.191406 140.0625 169.191406 C 142.140625 169.191406 144.015625 168.300781 145.367188 167.03125 C 146.667969 165.648438 147.445312 163.859375 147.445312 161.8125 Z M 140.0625 159.128906 C 140.84375 159.128906 141.449219 159.417969 141.9375 159.910156 C 142.429688 160.398438 142.714844 161.089844 142.714844 161.78125 C 142.714844 162.476562 142.429688 163.167969 141.9375 163.65625 C 141.449219 164.0625 140.871094 164.347656 140.0625 164.347656 C 139.371094 164.347656 138.792969 164.0625 138.304688 163.65625 C 137.8125 163.167969 137.527344 162.476562 137.527344 161.78125 C 137.527344 161.089844 137.8125 160.398438 138.304688 159.910156 C 138.792969 159.445312 139.371094 159.128906 140.0625 159.128906 Z M 140.0625 159.128906 " fill-opacity="1" fill-rule="nonzero"/><path fill="#0e1e3b" d="M 178.757812 180.582031 C 176.683594 180.582031 174.808594 181.359375 173.539062 182.746094 C 172.15625 184.015625 171.378906 185.886719 171.378906 187.964844 C 171.378906 190.039062 172.15625 191.800781 173.539062 193.183594 C 174.808594 194.453125 176.683594 195.347656 178.757812 195.347656 C 180.835938 195.347656 182.59375 194.453125 183.976562 193.183594 C 185.246094 191.800781 186.140625 190.039062 186.140625 187.964844 C 186.140625 185.886719 185.246094 184.015625 183.976562 182.746094 C 182.59375 181.390625 180.804688 180.582031 178.757812 180.582031 Z M 178.757812 185.3125 C 179.449219 185.3125 180.144531 185.601562 180.632812 186.089844 C 181.035156 186.582031 181.324219 187.273438 181.324219 187.964844 C 181.324219 188.65625 181.035156 189.347656 180.632812 189.839844 C 180.144531 190.242188 179.449219 190.53125 178.757812 190.53125 C 178.066406 190.53125 177.375 190.242188 176.882812 189.839844 C 176.394531 189.347656 176.105469 188.65625 176.105469 187.964844 C 176.105469 187.273438 176.394531 186.582031 176.882812 186.089844 C 177.375 185.601562 178.066406 185.3125 178.757812 185.3125 Z M 178.757812 185.3125 " fill-opacity="1" fill-rule="nonzero"/><path fill="#0e1e3b" d="M 226.480469 148.402344 C 227.863281 149.789062 229.621094 150.566406 231.699219 150.566406 C 233.773438 150.566406 235.535156 149.789062 236.917969 148.402344 C 238.300781 147.136719 239.082031 145.261719 239.082031 143.183594 C 239.082031 141.109375 238.300781 139.351562 236.917969 137.964844 C 235.535156 136.582031 233.773438 135.804688 231.699219 135.804688 C 229.621094 135.804688 227.863281 136.582031 226.480469 137.964844 C 225.09375 139.351562 224.316406 141.109375 224.316406 143.183594 C 224.316406 145.261719 225.09375 147.136719 226.480469 148.402344 Z M 234.234375 143.214844 C 234.234375 143.90625 233.949219 144.597656 233.542969 145.085938 C 233.054688 145.578125 232.363281 145.867188 231.667969 145.867188 C 230.976562 145.867188 230.285156 145.578125 229.796875 145.085938 C 229.390625 144.597656 229.101562 143.90625 229.101562 143.214844 C 229.101562 142.523438 229.390625 141.828125 229.796875 141.339844 C 230.285156 140.9375 230.976562 140.648438 231.667969 140.648438 C 232.363281 140.648438 233.054688 140.9375 233.542969 141.339844 C 233.949219 141.828125 234.234375 142.523438 234.234375 143.214844 Z M 234.234375 143.214844 " fill-opacity="1" fill-rule="nonzero"/><g fill="#0e1e3b" fill-opacity="1"><g transform="translate(147.866215, 281.09588)"><g><path d="M 10.515625 -3.984375 C 10.515625 -2.671875 10.035156 -1.644531 9.078125 -0.90625 C 8.128906 -0.164062 6.832031 0.203125 5.1875 0.203125 C 3.40625 0.203125 2.039062 -0.0234375 1.09375 -0.484375 L 1.09375 -2.15625 C 1.707031 -1.90625 2.375 -1.703125 3.09375 -1.546875 C 3.820312 -1.398438 4.539062 -1.328125 5.25 -1.328125 C 6.414062 -1.328125 7.289062 -1.546875 7.875 -1.984375 C 8.457031 -2.421875 8.75 -3.035156 8.75 -3.828125 C 8.75 -4.347656 8.644531 -4.769531 8.4375 -5.09375 C 8.226562 -5.425781 7.878906 -5.734375 7.390625 -6.015625 C 6.910156 -6.296875 6.171875 -6.613281 5.171875 -6.96875 C 3.773438 -7.46875 2.773438 -8.054688 2.171875 -8.734375 C 1.578125 -9.421875 1.28125 -10.316406 1.28125 -11.421875 C 1.28125 -12.578125 1.710938 -13.492188 2.578125 -14.171875 C 3.453125 -14.859375 4.601562 -15.203125 6.03125 -15.203125 C 7.519531 -15.203125 8.890625 -14.929688 10.140625 -14.390625 L 9.59375 -12.875 C 8.351562 -13.382812 7.148438 -13.640625 5.984375 -13.640625 C 5.066406 -13.640625 4.347656 -13.441406 3.828125 -13.046875 C 3.304688 -12.648438 3.046875 -12.101562 3.046875 -11.40625 C 3.046875 -10.882812 3.140625 -10.457031 3.328125 -10.125 C 3.523438 -9.789062 3.847656 -9.484375 4.296875 -9.203125 C 4.753906 -8.929688 5.453125 -8.628906 6.390625 -8.296875 C 7.960938 -7.734375 9.039062 -7.128906 9.625 -6.484375 C 10.21875 -5.847656 10.515625 -5.015625 10.515625 -3.984375 Z M 10.515625 -3.984375 "/></g></g><g transform="translate(159.391605, 281.09588)"><g><path d="M 6.546875 0.203125 C 4.890625 0.203125 3.578125 -0.300781 2.609375 -1.3125 C 1.648438 -2.320312 1.171875 -3.726562 1.171875 -5.53125 C 1.171875 -7.34375 1.617188 -8.78125 2.515625 -9.84375 C 3.410156 -10.90625 4.609375 -11.4375 6.109375 -11.4375 C 7.515625 -11.4375 8.628906 -10.972656 9.453125 -10.046875 C 10.273438 -9.128906 10.6875 -7.910156 10.6875 -6.390625 L 10.6875 -5.3125 L 2.9375 -5.3125 C 2.976562 -3.988281 3.3125 -2.984375 3.9375 -2.296875 C 4.570312 -1.617188 5.460938 -1.28125 6.609375 -1.28125 C 7.816406 -1.28125 9.015625 -1.535156 10.203125 -2.046875 L 10.203125 -0.515625 C 9.597656 -0.265625 9.023438 -0.0820312 8.484375 0.03125 C 7.953125 0.144531 7.304688 0.203125 6.546875 0.203125 Z M 6.09375 -10.015625 C 5.1875 -10.015625 4.460938 -9.71875 3.921875 -9.125 C 3.390625 -8.539062 3.078125 -7.734375 2.984375 -6.703125 L 8.859375 -6.703125 C 8.859375 -7.773438 8.617188 -8.59375 8.140625 -9.15625 C 7.660156 -9.726562 6.976562 -10.015625 6.09375 -10.015625 Z M 4.828125 -12.984375 C 5.148438 -13.410156 5.5 -13.921875 5.875 -14.515625 C 6.257812 -15.117188 6.5625 -15.644531 6.78125 -16.09375 L 8.859375 -16.09375 L 8.859375 -15.875 C 8.554688 -15.425781 8.109375 -14.878906 7.515625 -14.234375 C 6.921875 -13.585938 6.40625 -13.082031 5.96875 -12.71875 L 4.828125 -12.71875 Z M 4.828125 -12.984375 "/></g></g><g transform="translate(171.173342, 281.09588)"><g><path d="M 6.296875 0.203125 C 4.671875 0.203125 3.410156 -0.296875 2.515625 -1.296875 C 1.617188 -2.296875 1.171875 -3.710938 1.171875 -5.546875 C 1.171875 -7.429688 1.625 -8.882812 2.53125 -9.90625 C 3.4375 -10.925781 4.726562 -11.4375 6.40625 -11.4375 C 6.945312 -11.4375 7.488281 -11.378906 8.03125 -11.265625 C 8.570312 -11.148438 8.992188 -11.015625 9.296875 -10.859375 L 8.78125 -9.40625 C 8.40625 -9.5625 7.992188 -9.6875 7.546875 -9.78125 C 7.097656 -9.882812 6.707031 -9.9375 6.375 -9.9375 C 4.082031 -9.9375 2.9375 -8.476562 2.9375 -5.5625 C 2.9375 -4.1875 3.210938 -3.128906 3.765625 -2.390625 C 4.328125 -1.648438 5.15625 -1.28125 6.25 -1.28125 C 7.1875 -1.28125 8.148438 -1.484375 9.140625 -1.890625 L 9.140625 -0.375 C 8.390625 0.0078125 7.441406 0.203125 6.296875 0.203125 Z M 6.296875 0.203125 "/></g></g><g transform="translate(181.1709, 281.09588)"><g><path d="M 3.40625 -11.234375 L 3.40625 -3.953125 C 3.40625 -3.035156 3.613281 -2.347656 4.03125 -1.890625 C 4.445312 -1.441406 5.097656 -1.21875 5.984375 -1.21875 C 7.160156 -1.21875 8.019531 -1.535156 8.5625 -2.171875 C 9.101562 -2.816406 9.375 -3.867188 9.375 -5.328125 L 9.375 -11.234375 L 11.078125 -11.234375 L 11.078125 0 L 9.6875 0 L 9.4375 -1.5 L 9.34375 -1.5 C 8.988281 -0.945312 8.503906 -0.523438 7.890625 -0.234375 C 7.273438 0.0546875 6.566406 0.203125 5.765625 0.203125 C 4.398438 0.203125 3.378906 -0.117188 2.703125 -0.765625 C 2.023438 -1.421875 1.6875 -2.460938 1.6875 -3.890625 L 1.6875 -11.234375 Z M 3.40625 -11.234375 "/></g></g><g transform="translate(194.06006, 281.09588)"><g><path d="M 6.9375 -11.4375 C 7.4375 -11.4375 7.882812 -11.398438 8.28125 -11.328125 L 8.046875 -9.734375 C 7.578125 -9.835938 7.164062 -9.890625 6.8125 -9.890625 C 5.894531 -9.890625 5.113281 -9.519531 4.46875 -8.78125 C 3.820312 -8.050781 3.5 -7.132812 3.5 -6.03125 L 3.5 0 L 1.8125 0 L 1.8125 -11.234375 L 3.203125 -11.234375 L 3.40625 -9.15625 L 3.484375 -9.15625 C 3.898438 -9.882812 4.398438 -10.445312 4.984375 -10.84375 C 5.578125 -11.238281 6.226562 -11.4375 6.9375 -11.4375 Z M 6.9375 -11.4375 "/></g></g><g transform="translate(202.632325, 281.09588)"><g><path d="M 3.5 0 L 1.8125 0 L 1.8125 -11.234375 L 3.5 -11.234375 Z M 1.65625 -14.28125 C 1.65625 -14.675781 1.75 -14.960938 1.9375 -15.140625 C 2.132812 -15.316406 2.378906 -15.40625 2.671875 -15.40625 C 2.941406 -15.40625 3.175781 -15.3125 3.375 -15.125 C 3.570312 -14.945312 3.671875 -14.664062 3.671875 -14.28125 C 3.671875 -13.894531 3.570312 -13.609375 3.375 -13.421875 C 3.175781 -13.234375 2.941406 -13.140625 2.671875 -13.140625 C 2.378906 -13.140625 2.132812 -13.234375 1.9375 -13.421875 C 1.75 -13.609375 1.65625 -13.894531 1.65625 -14.28125 Z M 1.65625 -14.28125 "/></g></g><g transform="translate(207.943848, 281.09588)"><g><path d="M 5.4375 -1.203125 C 5.738281 -1.203125 6.03125 -1.222656 6.3125 -1.265625 C 6.59375 -1.304688 6.8125 -1.351562 6.96875 -1.40625 L 6.96875 -0.109375 C 6.789062 -0.015625 6.519531 0.0546875 6.15625 0.109375 C 5.800781 0.171875 5.476562 0.203125 5.1875 0.203125 C 3.007812 0.203125 1.921875 -0.941406 1.921875 -3.234375 L 1.921875 -9.921875 L 0.3125 -9.921875 L 0.3125 -10.734375 L 1.921875 -11.4375 L 2.640625 -13.84375 L 3.625 -13.84375 L 3.625 -11.234375 L 6.890625 -11.234375 L 6.890625 -9.921875 L 3.625 -9.921875 L 3.625 -3.296875 C 3.625 -2.617188 3.785156 -2.097656 4.109375 -1.734375 C 4.429688 -1.378906 4.875 -1.203125 5.4375 -1.203125 Z M 5.4375 -1.203125 "/></g></g><g transform="translate(215.357422, 281.09588)"><g><path d="M 6.546875 0.203125 C 4.890625 0.203125 3.578125 -0.300781 2.609375 -1.3125 C 1.648438 -2.320312 1.171875 -3.726562 1.171875 -5.53125 C 1.171875 -7.34375 1.617188 -8.78125 2.515625 -9.84375 C 3.410156 -10.90625 4.609375 -11.4375 6.109375 -11.4375 C 7.515625 -11.4375 8.628906 -10.972656 9.453125 -10.046875 C 10.273438 -9.128906 10.6875 -7.910156 10.6875 -6.390625 L 10.6875 -5.3125 L 2.9375 -5.3125 C 2.976562 -3.988281 3.3125 -2.984375 3.9375 -2.296875 C 4.570312 -1.617188 5.460938 -1.28125 6.609375 -1.28125 C 7.816406 -1.28125 9.015625 -1.535156 10.203125 -2.046875 L 10.203125 -0.515625 C 9.597656 -0.265625 9.023438 -0.0820312 8.484375 0.03125 C 7.953125 0.144531 7.304688 0.203125 6.546875 0.203125 Z M 6.09375 -10.015625 C 5.1875 -10.015625 4.460938 -9.71875 3.921875 -9.125 C 3.390625 -8.539062 3.078125 -7.734375 2.984375 -6.703125 L 8.859375 -6.703125 C 8.859375 -7.773438 8.617188 -8.59375 8.140625 -9.15625 C 7.660156 -9.726562 6.976562 -10.015625 6.09375 -10.015625 Z M 4.828125 -12.984375 C 5.148438 -13.410156 5.5 -13.921875 5.875 -14.515625 C 6.257812 -15.117188 6.5625 -15.644531 6.78125 -16.09375 L 8.859375 -16.09375 L 8.859375 -15.875 C 8.554688 -15.425781 8.109375 -14.878906 7.515625 -14.234375 C 6.921875 -13.585938 6.40625 -13.082031 5.96875 -12.71875 L 4.828125 -12.71875 Z M 4.828125 -12.984375 "/></g></g></g><g fill="#0e1e3b" fill-opacity="1"><g transform="translate(132.674864, 260.824524)"><g><path d="M 15.6875 0 L 8.8125 -22.40625 L 8.640625 -22.40625 C 8.878906 -17.84375 9 -14.800781 9 -13.28125 L 9 0 L 3.59375 0 L 3.59375 -28.5625 L 11.84375 -28.5625 L 18.59375 -6.71875 L 18.71875 -6.71875 L 25.875 -28.5625 L 34.125 -28.5625 L 34.125 0 L 28.484375 0 L 28.484375 -13.515625 C 28.484375 -14.148438 28.488281 -14.882812 28.5 -15.71875 C 28.519531 -16.550781 28.609375 -18.765625 28.765625 -22.359375 L 28.59375 -22.359375 L 21.234375 0 Z M 15.6875 0 "/></g></g></g><g fill="#0e1e3b" fill-opacity="1"><g transform="translate(178.586016, 260.824524)"><g><path d="M 21.078125 0 L 19 -6.796875 L 8.59375 -6.796875 L 6.53125 0 L 0 0 L 10.078125 -28.671875 L 17.484375 -28.671875 L 27.59375 0 Z M 17.5625 -11.875 C 15.644531 -18.03125 14.566406 -21.507812 14.328125 -22.3125 C 14.085938 -23.125 13.914062 -23.765625 13.8125 -24.234375 C 13.382812 -22.566406 12.15625 -18.445312 10.125 -11.875 Z M 17.5625 -11.875 "/></g></g></g><g fill="#0e1e3b" fill-opacity="1"><g transform="translate(214.38097, 260.824524)"><g><path d="M 3.59375 -28.5625 L 12.484375 -28.5625 C 16.535156 -28.5625 19.472656 -27.984375 21.296875 -26.828125 C 23.128906 -25.671875 24.046875 -23.835938 24.046875 -21.328125 C 24.046875 -19.617188 23.644531 -18.21875 22.84375 -17.125 C 22.039062 -16.03125 20.976562 -15.375 19.65625 -15.15625 L 19.65625 -14.96875 C 21.457031 -14.5625 22.757812 -13.800781 23.5625 -12.6875 C 24.363281 -11.582031 24.765625 -10.113281 24.765625 -8.28125 C 24.765625 -5.675781 23.820312 -3.644531 21.9375 -2.1875 C 20.0625 -0.726562 17.507812 0 14.28125 0 L 3.59375 0 Z M 9.65625 -17.25 L 13.171875 -17.25 C 14.804688 -17.25 15.988281 -17.5 16.71875 -18 C 17.457031 -18.507812 17.828125 -19.351562 17.828125 -20.53125 C 17.828125 -21.625 17.425781 -22.40625 16.625 -22.875 C 15.832031 -23.351562 14.566406 -23.59375 12.828125 -23.59375 L 9.65625 -23.59375 Z M 9.65625 -12.4375 L 9.65625 -5 L 13.59375 -5 C 15.257812 -5 16.488281 -5.316406 17.28125 -5.953125 C 18.082031 -6.597656 18.484375 -7.578125 18.484375 -8.890625 C 18.484375 -11.253906 16.789062 -12.4375 13.40625 -12.4375 Z M 9.65625 -12.4375 "/></g></g></g></svg>